<svg xmlns="http://www.w3.org/2000/svg" viewBox="0 0 1280 720" role="img" aria-labelledby="title desc">
  <title id="title">Historienansicht Beispiel</title>
  <desc id="desc">Abstrakte Vorschau mit Balkendiagrammen fuer historische Quartalsvergleiche.</desc>
  <defs>
    <linearGradient id="bg" x1="0" x2="1" y1="0" y2="1">
      <stop offset="0%" stop-color="#f7f5f0"/>
      <stop offset="100%" stop-color="#edf3ef"/>
    </linearGradient>
  </defs>
  <rect width="1280" height="720" fill="url(#bg)"/>
  <rect x="64" y="64" width="1152" height="84" rx="16" fill="#ffffff" opacity="0.92"/>
  <rect x="64" y="180" width="1152" height="84" rx="18" fill="#ffffff" opacity="0.94"/>
  <rect x="64" y="292" width="1152" height="364" rx="20" fill="#ffffff" opacity="0.94"/>
  <rect x="120" y="356" width="130" height="18" rx="9" fill="#d0ded5"/>
  <rect x="270" y="356" width="840" height="18" rx="9" fill="#d0ded5"/>
  <rect x="120" y="410" width="130" height="18" rx="9" fill="#d0ded5"/>
  <rect x="270" y="410" width="730" height="18" rx="9" fill="#d0ded5"/>
  <rect x="120" y="464" width="130" height="18" rx="9" fill="#d0ded5"/>
  <rect x="270" y="464" width="910" height="18" rx="9" fill="#1f7a53"/>
  <rect x="120" y="518" width="130" height="18" rx="9" fill="#d0ded5"/>
  <rect x="270" y="518" width="620" height="18" rx="9" fill="#d88a19"/>
</svg>
